<?xml version="1.0" encoding="UTF-8" standalone="no"?>
<svg
   xmlns:dc="http://purl.org/dc/elements/1.1/"
   xmlns:cc="http://creativecommons.org/ns#"
   xmlns:rdf="http://www.w3.org/1999/02/22-rdf-syntax-ns#"
   xmlns:svg="http://www.w3.org/2000/svg"
   xmlns="http://www.w3.org/2000/svg"
   xmlns:sodipodi="http://sodipodi.sourceforge.net/DTD/sodipodi-0.dtd"
   xmlns:inkscape="http://www.inkscape.org/namespaces/inkscape"
   version="1.1"
   width="1000"
   height="1000"
   id="svg58"
   viewBox="0 0 999.99996 999.99996"
   sodipodi:docname="RP LOGO.svg"
   inkscape:version="0.92.4 (5da689c313, 2019-01-14)">
  <metadata
     id="metadata64">
    <rdf:RDF>
      <cc:Work
         rdf:about="">
        <dc:format>image/svg+xml</dc:format>
        <dc:type
           rdf:resource="http://purl.org/dc/dcmitype/StillImage" />
        <dc:title></dc:title>
      </cc:Work>
    </rdf:RDF>
  </metadata>
  <defs
     id="defs62" />
  <sodipodi:namedview
     pagecolor="#ffffff"
     bordercolor="#666666"
     borderopacity="1"
     objecttolerance="10"
     gridtolerance="10"
     guidetolerance="10"
     inkscape:pageopacity="0"
     inkscape:pageshadow="2"
     inkscape:window-width="1366"
     inkscape:window-height="705"
     id="namedview60"
     showgrid="false"
     width="100px"
     inkscape:zoom="0.34353837"
     inkscape:cx="595.27557"
     inkscape:cy="530.50843"
     inkscape:window-x="-8"
     inkscape:window-y="-8"
     inkscape:window-maximized="1"
     inkscape:current-layer="Layer1001" />
  <g
     id="Layer1001"
     transform="translate(0,404.72442)">
    <g
       id="Layer1003"
       transform="matrix(2.2401741,0,0,2.2401741,-168.7985,-637.75364)">
      <path
         d="m 136.9007,292.0109 c -0.1243,0.1867 -0.4604,0.4591 -0.6379,0.6559 -0.7496,0.8304 -1.0356,1.406 -1.5598,2.4653 l -8.4792,24.1369 c 3.3462,-0.1152 6.84,-2.1657 8.0504,-5.2553 0.0431,-0.1107 0.0861,-0.2214 0.1248,-0.3119 2.1401,-5.0026 4.0826,-10.9784 6.0171,-16.3496 l 0.4073,-0.9569 c 2.0834,0.006 4.1656,0 6.2481,8e-4 0.7474,5e-4 5.9363,-0.0966 6.1577,0.0633 0.4253,-0.0206 1.2205,0.1481 1.5742,0.3005 0.9882,0.4258 1.4943,1.2698 1.1771,2.3568 -0.243,0.8317 -0.9477,1.5215 -1.5413,2.0821 -0.9354,0.8845 -2.8009,1.1753 -4.101,1.3036 -2.0571,0.1116 -4.0984,0.0141 -6.1388,0.2465 -0.6625,0.0751 -1.1955,0.181 -1.7983,0.362 -2.3317,0.7017 -4.1994,2.8216 -4.6353,5.7456 l 7.2605,0.005 1.9437,3.1994 c 0.7254,1.4728 1.4798,2.9776 2.243,4.4279 0.7517,1.4284 1.7249,2.4126 3.3216,2.7328 1.6638,0.2562 3.1994,-0.4042 4.5627,-1.3976 -0.6818,-1.3304 -5.2719,-9.1097 -5.3312,-9.988 1.0237,-0.471 2.3076,-0.5334 3.7267,-1.2175 0.5523,-0.2662 1.0931,-0.6006 1.5685,-0.9266 l 1.42,-1.0703 c 0.1138,-0.1722 0.5466,-0.4965 0.7307,-0.6911 1.3611,-1.4372 2.5294,-3.25 2.9811,-5.2372 0.0848,-0.3722 0.1177,-0.83 0.2315,-1.149 0.002,-0.3475 0.0721,-0.7161 0.0672,-1.1036 -0.004,-0.3911 -0.1243,-0.7698 -0.148,-1.0976 -0.1209,-0.1454 -0.1191,-0.4521 -0.1846,-0.6537 -0.1946,-0.5958 -0.5373,-1.2149 -0.9108,-1.6494 -0.2781,-0.3234 -0.5303,-0.5817 -0.8567,-0.844 -0.3124,-0.2509 -0.7091,-0.4403 -1.0114,-0.6824 -0.7856,-0.3088 -1.6894,-0.6801 -2.638,-0.7293 -1.2108,-0.1832 -2.3519,-0.283 -3.6041,-0.3251 -0.6608,-0.0229 -1.3229,-0.0339 -1.9841,-0.0361 -3.2596,-0.0123 -9.4327,-0.2319 -11.9784,0.4482 -1.3462,0.3594 -1.536,0.7456 -2.275,1.1393 z m 25.2673,27.2616 c 4.7856,-0.4517 6.8638,-2.5404 8.3914,-6.9613 l 5.8519,-15.8628 c 2.6656,-0.0936 9.4647,-0.0711 12.495,-0.0342 0.8537,0.0105 1.96,0.177 2.4745,0.9029 0.9829,1.387 0.7113,3.8989 -2.7095,4.7003 -5.326,1.2473 -13.9292,-1.0128 -15.314,6.8593 4.3233,0.062 11.2081,0.1274 15.3865,-1.0738 5.637,-1.6199 8.7881,-4.1107 9.1835,-10.1708 0.1305,-5.0197 -4.4762,-7.17 -8.8747,-7.2038 -3.2649,-0.0251 -6.963,-0.116 -9.876,-0.0299 -2.1616,0.0641 -4.6616,0.4407 -6.456,1.7289 -0.594,0.4271 -0.8677,0.7249 -1.3167,1.2926 -0.3612,0.4569 -0.9165,1.3932 -1.123,1.96 z m -26.001,-35.9953 h 4.3615 62.5218 8.7771 l -2.5193,8.7706 -0.001,0.007 -7.3646,25.6403 c -1.3862,4.8277 -6.4705,8.7776 -11.2978,8.7776 h -8.7261 -58.1572 -8.7771 l 2.5211,-8.7776 7.3641,-25.6403 c 1.3862,-4.8278 6.4705,-8.7772 11.2978,-8.7772 z"
         style="fill:#e30016;fill-rule:evenodd"
         id="path52"
         inkscape:connector-curvature="0" />
      <path
         d="m 211.8656,315.7035 6.1454,-21.5982 h 10.1976 c 3.1366,0 5.2557,0.7764 6.3615,2.3295 0.906,1.2803 1.0563,2.993 0.4447,5.1423 -0.4504,1.5839 -1.2236,2.9262 -2.3128,4.0268 -1.0914,1.1054 -2.4178,1.9538 -3.9679,2.5404 l 3.0017,7.5592 h -6.9059 l -2.4859,-6.572 h -2.6226 l -1.8699,6.572 z m 9.1814,-11.231 h 3.9494 c 1.0132,0 1.8656,-0.2315 2.5615,-0.6893 0.6925,-0.4627 1.1551,-1.0954 1.3862,-1.9078 0.2342,-0.8229 0.1301,-1.4503 -0.3194,-1.8769 -0.4429,-0.4319 -1.1784,-0.6481 -2.2017,-0.6481 h -3.9186 z m 11.9067,11.231 6.1454,-21.5982 h 17.3456 l -1.4486,5.0909 h -11.4217 l -0.9305,3.2706 h 10.3364 l -1.3431,4.7205 h -10.3365 l -0.9745,3.4253 h 11.5706 l -1.4485,5.0909 z m 19.4884,0 6.1458,-21.5982 h 8.3202 c 1.8923,0 3.5356,0.2623 4.9174,0.7917 1.3813,0.5299 2.4516,1.2702 3.2042,2.2215 0.7535,0.9463 1.2171,2.083 1.3928,3.3993 0.1744,1.3216 0.0409,2.7667 -0.4099,4.3506 -0.4416,1.5531 -1.1279,2.9877 -2.0593,4.3093 -0.938,1.3268 -2.0549,2.4683 -3.3633,3.4353 -1.3089,0.9666 -2.8159,1.7276 -4.5294,2.2729 -1.7083,0.5448 -3.5136,0.8176 -5.4213,0.8176 z m 7.4784,-5.2455 h 2.4428 c 1.8151,0 3.4042,-0.4886 4.7557,-1.4605 1.3528,-0.9767 2.2768,-2.3449 2.7772,-4.1036 0.4873,-1.7122 0.3335,-3.0699 -0.4657,-4.0571 -0.797,-0.9925 -2.1015,-1.4864 -3.9068,-1.4864 h -2.4429 z m 25.2739,5.2455 6.1453,-21.5982 h 9.2513 c 2.7565,0 4.7504,0.6736 5.9832,2.0158 1.2364,1.3475 1.5127,3.2139 0.8339,5.6001 -0.4727,1.6608 -1.2829,3.0804 -2.4279,4.2684 -1.1459,1.1876 -2.4912,2.0668 -4.0382,2.6428 -1.5439,0.5813 -3.2196,0.8695 -5.0298,0.8695 h -2.9675 l -1.7644,6.2016 z m 9.0763,-10.861 h 2.8436 c 1.0646,0 1.9758,-0.2571 2.7302,-0.7764 0.7548,-0.5193 1.2588,-1.2241 1.5132,-2.1186 0.2618,-0.9205 0.1608,-1.63 -0.3045,-2.1292 -0.4644,-0.4986 -1.243,-0.7456 -2.3229,-0.7456 h -2.8181 z m 10.5922,10.861 6.1458,-21.5982 h 17.3451 l -1.4485,5.0909 H 315.484 l -0.9305,3.2706 h 10.3364 l -1.3436,4.7205 h -10.3364 l -0.9741,3.4253 h 11.5702 l -1.4481,5.0909 z m 22.9694,-16.3531 1.4925,-5.2451 h 18.9137 l -1.4925,5.2451 h -6.4793 l -4.6528,16.3531 h -5.9859 l 4.6528,-16.3531 z m 15.7819,16.3531 6.1454,-21.5982 h 10.1976 c 3.1366,0 5.2556,0.7764 6.3615,2.3295 0.906,1.2803 1.0563,2.993 0.4447,5.1423 -0.4504,1.5839 -1.2232,2.9262 -2.3128,4.0268 -1.0914,1.1054 -2.4179,1.9538 -3.9679,2.5404 l 3.0017,7.5592 h -6.9059 l -2.4859,-6.572 H 351.47 l -1.8699,6.572 z m 9.1814,-11.231 h 3.9494 c 1.0132,0 1.8655,-0.2315 2.5615,-0.6893 0.6924,-0.4627 1.1551,-1.0954 1.3862,-1.9078 0.2342,-0.8229 0.13,-1.4503 -0.3194,-1.8769 -0.4429,-0.4319 -1.1784,-0.6481 -2.2017,-0.6481 h -3.9187 z m 41.8752,11.231 6.1458,-21.5982 h 5.9854 l -4.6528,16.3527 h 10.4594 l -1.492,5.2455 z m 17.9049,0 6.1454,-21.5982 h 17.3456 l -1.4486,5.0909 h -11.4213 l -0.9305,3.2706 h 10.336 l -1.3432,4.7205 h -10.3364 l -0.9745,3.4253 h 11.5706 l -1.4486,5.0909 z m 21.9079,-9.4775 3.4486,-12.1207 h 6.0786 l -3.417,12.0078 c -0.4297,1.5105 -0.4064,2.6586 0.0783,3.4297 0.4837,0.7763 1.351,1.1621 2.5957,1.1621 1.2443,0 2.3269,-0.3704 3.2434,-1.116 0.9152,-0.7403 1.5808,-1.851 2.0008,-3.3268 l 3.4591,-12.1568 h 6.0782 l -3.4064,11.9713 c -0.4881,1.7166 -1.1507,3.2144 -1.9899,4.5 -0.8334,1.2856 -1.8145,2.3295 -2.9375,3.1313 -1.1248,0.8076 -2.3546,1.4047 -3.6955,1.8001 -1.341,0.3954 -2.7922,0.5967 -4.3506,0.5967 -3.1674,0 -5.3919,-0.8234 -6.673,-2.4631 -1.2817,-1.6401 -1.4521,-4.1142 -0.5128,-7.4156 z m 19.872,9.4775 6.1453,-21.5982 h 6.3308 l 2.7733,8.3615 7.5372,-8.3615 h 6.3457 l -6.1453,21.5982 h -5.9859 l 3.5276,-12.3984 -7.9234,8.4543 h -0.1182 l -3.1142,-8.3928 -3.5105,12.3369 z m -88.3822,-8.2407 c -0.3036,2.2179 -0.362,3.4315 0.1261,5.4951 0.0562,0.2347 0.0782,0.446 0.1437,0.6565 0.0615,0.1968 0.1476,0.3963 0.2161,0.5922 l 0.4398,1.112 c 0.2904,0.7206 0.7447,1.4051 1.1832,2.0238 0.4451,0.6269 0.9367,1.2113 1.5215,1.7258 1.0154,0.8945 2.2215,1.7236 3.5255,2.2447 3.2754,1.3084 6.6743,1.2618 10.2995,0.0193 1.9921,-0.6823 4.6357,-2.34 6.1515,-3.949 1.3748,-1.4587 2.3036,-2.576 3.1938,-4.3712 1.2688,-2.5584 1.7785,-4.7223 1.7144,-7.4239 -0.0418,-1.7395 -0.4328,-3.1353 -1.062,-4.6722 -0.2104,-0.5145 -0.3726,-0.8076 -0.6476,-1.2557 -1.2983,-2.1134 -4.7623,-5.8541 -6.2319,-7.5566 l -3.6674,-4.2061 -9.6207,8.4301 -2.3686,2.1503 c -0.2443,0.2293 -0.3357,0.2851 -0.5659,0.5465 -1.6894,1.9249 -2.105,2.5198 -3.253,4.8168 -0.3669,0.7333 -0.9899,2.8303 -1.098,3.6216 z m 5.6212,-0.2614 c 0.4222,-3.0492 3.4064,-5.967 5.0474,-7.144 0,0 -1.6072,2.2122 -2.3357,4.6326 -0.8844,2.9385 0.9337,4.989 1.5778,6.5953 1.4714,3.6722 -5.416,3.8875 -4.2895,-4.0839 z m -2.3409,-0.051 c -0.2347,1.7136 -0.2795,2.6512 0.0979,4.2456 0.0431,0.181 0.0602,0.3445 0.1108,0.507 0.047,0.1521 0.1138,0.3063 0.1669,0.4574 l 0.3401,0.8594 c 0.2241,0.5562 0.5751,1.0852 0.9139,1.5633 0.344,0.4846 0.7236,0.9358 1.1753,1.3334 0.7847,0.6911 1.7165,1.3313 2.724,1.7342 2.5303,1.011 5.1564,0.9749 7.9573,0.0154 1.5386,-0.5277 3.5812,-1.8084 4.7526,-3.0514 1.0619,-1.127 1.7794,-1.9903 2.4674,-3.3774 0.9803,-1.9762 1.3744,-3.648 1.3243,-5.7354 -0.0321,-1.3436 -0.3344,-2.4222 -0.8203,-3.6098 -0.163,-0.3972 -0.2882,-0.6239 -0.5004,-0.9702 -1.0031,-1.6326 -3.6793,-4.5228 -4.8146,-5.8382 l -2.8334,-3.2491 -7.4332,6.5127 -1.8295,1.6616 c -0.1889,0.1767 -0.2596,0.2202 -0.4371,0.4218 -1.3054,1.4873 -1.6266,1.9468 -2.5136,3.7214 -0.2834,0.5668 -0.7645,2.1867 -0.8484,2.7983 z"
         style="fill:#e30016;fill-rule:evenodd"
         id="path54"
         inkscape:connector-curvature="0" />
    </g>
  </g>
</svg>
